<svg width="18" height="18" fill="none" xmlns="http://www.w3.org/2000/svg"><path d="M8.944 4a3.287 3.287 0 0 0-3.288 3.278h1.672a1.616 1.616 0 0 1 3.233 0c0 .499-.402.86-1.017 1.355a7.692 7.692 0 0 0-.577.5c-.834.83-.859 1.713-.859 1.811v.556H9.78v-.527c0-.014.027-.322.368-.661.125-.125.283-.25.447-.382.651-.526 1.637-1.32 1.637-2.652A3.286 3.286 0 0 0 8.944 4zm-.836 8.333H9.78V14H8.108v-1.667z" fill="#161A1D"/><path d="M8.944.667C4.335.667.585 4.405.585 9c0 4.595 3.75 8.333 8.36 8.333 4.608 0 8.358-3.738 8.358-8.333 0-4.595-3.75-8.333-8.359-8.333zm0 15c-3.687 0-6.687-2.991-6.687-6.667 0-3.676 3-6.667 6.687-6.667 3.688 0 6.688 2.991 6.688 6.667 0 3.676-3 6.667-6.688 6.667z" fill="#161A1D"/></svg>