<svg width="1212" height="1040" fill="none" xmlns="http://www.w3.org/2000/svg"><g filter="url(#filter0_i)"><path fill-rule="evenodd" clip-rule="evenodd" d="M43.857 516s-5.377 37.272 10.805 88.299C70.844 655.326 91.007 668 91.007 668L103 533.159 43.857 516z" fill="#181C20"/><path fill-rule="evenodd" clip-rule="evenodd" d="M86.89 540.765c-5.126 51.783-3.216 73.64-3.216 120.553 0 46.914 10.125 111.123 40.414 176.855 30.29 65.731 81.598 106.459 150.918 110.538 69.32 4.079 111.477-16.843 146.408-53.302C456.345 858.949 227.5 684.5 227.5 684.5l43.962-285.744-26.172-12.361s-155.728 127.37-158.4 154.37zM695.594 619.85l11.086 183.094s-5.492 34.372-5.492 102.196c0 67.823 48.206 97.18 68.502 104.53 13.793 5 66.183 22.83 129.602 13.94 29.911-4.2 62.275-14.34 94.199-34.58 23.789-15.079 47.719-32.636 69.989-55.149 16.72-16.905 32.68-37.566 45.96-56.759 41.05-59.34 46.01-84.612 61.79-122.201 15.77-37.588 35.82-117.722 39.19-174.886 4.17-70.709-2.13-156.562-16.58-208.733-14.45-52.171-56.88-201.476-218.516-293.34C893.418 31.41 769.69-6.559 605.734.951c-77.051 3.529-150.1 17.1-231.615 53.174C292.604 90.2 241.5 144 241.5 144l62.276 130.724L695.594 619.85z" fill="#0B0D0F"/><path fill-rule="evenodd" clip-rule="evenodd" d="M270.346 399.653S178.98 529.89 221.093 687.686c10.019 37.541 36.072 114.195 90.772 165.904 42.353 42.668 108.743 42.668 108.743 42.668s42.75-47.391 57.582-55.014c84.933-43.65 228.848-38.327 228.848-38.327s2.55-56.564 1.509-84.85C707.48 689.082 700.5 615.5 700.5 615.5L298.967 363l-28.621 36.653z" fill="#0B0D0F"/><path fill-rule="evenodd" clip-rule="evenodd" d="M555.787 4.82C509.69 27.933 459.52 57.334 416.166 92.508c-43.883 35.603-96.296 96.578-132.093 140.857l19.703 41.359.529.466c40.273-48.502 106.181-124.552 154.453-163.716C523.485 58.959 603.34 21.974 659.292.088c-17.347-.248-35.2.023-53.558.864-16.796.77-33.402 2.016-49.947 3.868zM725.846 3.708C666.212 27.676 573.367 70.657 500.027 130.16c-57.681 46.798-130.098 137.43-160.15 176.364l31.019 27.322c35.876-44.077 115.684-139.254 171.722-184.72C641.151 69.184 774.737 25.23 805.701 15.741c-25.026-5.22-51.648-9.325-79.855-12.033zM1121.33 210.734c-29.95 11.395-61.24 25.02-88.02 40.328C1004 196.5 891.5 96.5 891.5 96.5s20.752 128 20.752 213.698C818 348.077 729.375 403.996 729.375 403.996l189.519 39.765 14.129 202.773S1022.5 530.5 1059.5 459.5c41.33 13.176 106.5 44.287 152.14 67.124a873.088 873.088 0 0 0-2.71-60.26c-27.19-39.997-61.17-85.668-94.16-118.287l47-66.58c-10.29-22.237-23.46-46.346-40.44-70.763z" fill="#1A1F23"/><path fill-rule="evenodd" clip-rule="evenodd" d="M963.156 868.429c-9.982-56.098-25.335-84.32-45.23-136.148-19.895-51.829-80.137-116.768-80.137-116.768l81.319-123.087s63.084 87.344 78.838 120.653c15.754 33.309 40.744 98.28 53.884 166.006 15.89 81.914 17.84 155.208 15.17 160.415-7.75 15.094-38.46 41.045-42.96 44.109-10.12 6.905-30.922 18.181-42.084 21.891-7.5 2-7.5-5-7.5-5s-.886-73.547-11.3-132.071z" fill="#181C20"/><path d="M960.44 924.221c-.211-.385-.475-1.166-.783-2.354-.304-1.171-.64-2.69-1.003-4.513-.728-3.647-1.565-8.487-2.489-14.149-1.011-6.189-2.125-13.346-3.314-20.986a5104.781 5104.781 0 0 0-3.1-19.748 4092.51 4092.51 0 0 0-2.496-15.381c-1.461-8.934-2.874-17.574-4.023-25.265-1.805-12.079-2.947-21.735-2.62-26.486.134-1.945 1.164-4.366 2.801-7.033 1.629-2.653 3.825-5.494 6.22-8.266 4.791-5.543 10.346-10.767 13.671-13.597 11.32-9.634 24.833-18.672 37.386-25.807 12.56-7.138 24.12-12.35 31.53-14.353 1.34-.363 4.77-.811 8.48-.332 3.72.48 7.62 1.876 10.02 5.102.58.775 1.14 2.221 1.67 4.197.52 1.956 1.01 4.363 1.47 7.004.46 2.578.89 5.368 1.32 8.167l.03.203c.45 2.865.89 5.733 1.36 8.375 2.02 11.3 4 21.273 5.25 27.557.45 2.233.8 4 1.02 5.195.74 3.85 1.93 9.471 3.29 15.853.2.937.41 1.891.61 2.857 1.61 7.555 3.37 15.924 4.84 23.598 1.21 6.347 2.2 12.074 2.79 16.998.58 4.931.74 9.021.31 12.106-.64 4.576-3.99 9.864-9.27 15.453-5.26 5.574-12.39 11.383-20.48 17.003-16.18 11.241-36.14 21.686-52.571 27.948-.439.167-1.086.452-1.899.809-2.895 1.273-7.903 3.475-13.171 4.629-3.364.737-6.774 1.029-9.745.389-2.952-.636-5.468-2.19-7.104-5.173z" fill="#181C20"/><path fill-rule="evenodd" clip-rule="evenodd" d="M955.826 797.355l18.277 115.397c21.87-5.922 46.857-19.63 70.147-39.925 4.19-3.651 8.18-7.394 11.98-11.203l-18.66-117.815c-9.55 2.928-19.61 7.28-29.82 12.961l10 71.182a7.994 7.994 0 0 1-6.8 9.036l-1.98.278c-4.38.615-8.43-2.433-9.04-6.809l-8.891-63.261a226.72 226.72 0 0 0-19.805 15.436 230.555 230.555 0 0 0-15.408 14.723z" fill="#0B0D0F"/><path fill-rule="evenodd" clip-rule="evenodd" d="M255 400.697s37.365-3.834 51.952-.958c15.715 3.099 38.954 18.883 38.954 18.883l58.98-209.96s-36.212 7.751-51.844 7.026c-15.633-.725-27.934-8.688-27.934-8.688L255 400.697z" fill="#181C20"/><path fill-rule="evenodd" clip-rule="evenodd" d="M20.5 475.5s23.975 65.214 62.647 65.232c61.587.03 172.255-136.455 185.843-160.273 54.4-95.355 63.527-165.816 52.033-199.844C313.241 157.578 286.337 146 286.337 146L20.5 475.5z" fill="#181C20"/><path fill-rule="evenodd" clip-rule="evenodd" d="M48.081 414.727c26.642 20.077 87.473-15.712 135.869-79.935 48.396-64.224 66.031-132.562 39.388-152.639-26.642-20.076-87.473 15.712-135.868 79.936-48.396 64.223-66.031 132.562-39.389 152.638zM286.528 145.97S175.076 114.643 79.214 255.463s-57.727 222.53-57.727 222.53 109.082 10.614 204.211-123.842c95.128-134.456 60.83-208.181 60.83-208.181z" fill="#181C20"/><path fill-rule="evenodd" clip-rule="evenodd" d="M48.24 414.926c26.642 20.076 87.473-15.712 135.869-79.936 48.396-64.223 66.031-132.562 39.388-152.638-26.642-20.077-87.473 15.711-135.869 79.935-48.395 64.224-66.03 132.562-39.388 152.639z" fill="#0B0D0F"/><path fill-rule="evenodd" clip-rule="evenodd" d="M356 447.961C383.276 527.414 446.475 568.556 503.5 593c65.741 28.18 268.585 30.383 291 35 14 2.884 22.5 7 22.5 7s5 2 20-11c16.251-11.744 45.521-38.277 72.334-73.328 25.908-33.866 27.206-51.797 26.9-61.01-1.06-31.926-9.671-63.612-17.875-87.452-8.204-23.84-24.237-49.952-33.92-69.562-9.684-19.611-60.641-78.306-92.939-96.148 0 0-388.041 154.654-435.5 211.461z" fill="#181C20"/><path fill-rule="evenodd" clip-rule="evenodd" d="M854.459 304.406c-27.821-52.774-90.361-94.299-166.271-115.07-165.098-45.176-315.241-18.213-343.84 112.5-28.6 130.712 24.681 215.986 188.131 267.646 78.201 24.717 175.069 13.754 230.257-10.508 51.99-22.855 72.518-54.438 85.278-74.068.695-1.069 1.367-2.103 2.019-3.098 26.397-40.237 37.113-115.398 4.426-177.402zm-32.508 124.535c-27.226 79.068-137.669 112.737-246.682 75.201C466.256 466.606 399.954 372.079 427.18 293.01c27.226-79.069 137.669-112.737 246.681-75.201 109.013 37.536 175.315 132.063 148.09 211.132z" fill="#181C20"/><path fill-rule="evenodd" clip-rule="evenodd" d="M575.385 503.298c109.013 37.536 219.456 3.868 246.682-75.201 27.225-79.069-39.076-173.596-148.089-211.132s-219.456-3.867-246.682 75.202c-27.225 79.068 39.076 173.595 148.089 211.131z" fill="#0B0D0F"/></g><defs><filter id="filter0_i" x="0" y="0" width="1212" height="1044" filterUnits="userSpaceOnUse" color-interpolation-filters="sRGB"><feFlood flood-opacity="0" result="BackgroundImageFix"/><feBlend in="SourceGraphic" in2="BackgroundImageFix" result="shape"/><feColorMatrix in="SourceAlpha" values="0 0 0 0 0 0 0 0 0 0 0 0 0 0 0 0 0 0 127 0" result="hardAlpha"/><feOffset dy="4"/><feGaussianBlur stdDeviation="2"/><feComposite in2="hardAlpha" operator="arithmetic" k2="-1" k3="1"/><feColorMatrix values="0 0 0 0 0 0 0 0 0 0 0 0 0 0 0 0 0 0 0.25 0"/><feBlend in2="shape" result="effect1_innerShadow"/></filter></defs></svg>